<svg xmlns="http://www.w3.org/2000/svg" width="95" height="95" fill="none" viewBox="0 0 95 95">
    <path fill="#EE3524" d="M25.877 43.245c.277-3.292-1.457-5.187-4.706-5.187-3.643 0-6.382 3.118-7.46 9.224-.787 4.429-.554 8.61 4.72 8.61 3.337 0 5.334-2.33 6.252-5.361h9.966c-2.36 8.16-9.063 13.084-17.412 13.084-10.447 0-15.634-6.411-13.827-16.683 1.806-10.229 9.864-16.596 18.679-16.596 9.66 0 14.22 4.78 13.623 12.91h-9.835zM60.016 43.245c.277-3.292-1.457-5.187-4.706-5.187-3.643 0-6.382 3.118-7.46 9.224-.787 4.429-.554 8.61 4.72 8.61 3.337 0 5.333-2.33 6.251-5.361h9.967c-2.36 8.16-9.063 13.084-17.412 13.084-10.447 0-15.634-6.411-13.828-16.683 1.807-10.229 9.865-16.596 18.68-16.596 9.66 0 14.206 4.78 13.623 12.91h-9.835zM71.28 62.785l5.565-31.618h10.36l-5.566 31.618h-10.36zM87.117 60.045c.496 0 .933-.044.933-.626 0-.481-.437-.554-.83-.554h-.787v1.18h.684zm-.7 2.157h-.582V58.37h1.457c.903 0 1.355.335 1.355 1.092 0 .685-.437.976-.99 1.05l1.092 1.69h-.655l-1.006-1.661h-.67v1.66zm.7.845c1.501 0 2.681-1.18 2.681-2.769 0-1.573-1.195-2.754-2.68-2.754-1.516 0-2.71 1.18-2.71 2.754.014 1.588 1.194 2.769 2.71 2.769zm-3.366-2.769c0-1.908 1.545-3.307 3.38-3.307 1.808 0 3.352 1.399 3.352 3.307 0 1.924-1.544 3.322-3.351 3.322-1.836 0-3.38-1.398-3.38-3.322z"/>
</svg>
