<svg xmlns="http://www.w3.org/2000/svg" width="80" height="80" fill="none" viewBox="0 0 80 80">
    <path fill="#607D8B" d="M70 52.5c-1.38 0-2.5-1.12-2.5-2.5v-5h-55v5c0 1.38-1.12 2.5-2.5 2.5S7.5 51.38 7.5 50v-7.5c0-1.38 1.12-2.5 2.5-2.5h60c1.38 0 2.5 1.12 2.5 2.5V50c0 1.38-1.12 2.5-2.5 2.5z"/>
    <path fill="#607D8B" d="M40 53.333c-1.38 0-2.5-1.12-2.5-2.5v-15c0-1.38 1.12-2.5 2.5-2.5s2.5 1.12 2.5 2.5v15c0 1.38-1.12 2.5-2.5 2.5z"/>
    <path fill="#F40" d="M40 66.667c2.761 0 5-2.239 5-5 0-2.762-2.239-5-5-5s-5 2.238-5 5c0 2.761 2.239 5 5 5zM42.5 70h-5c-4.133 0-7.5 3.363-7.5 7.5 0 1.38 1.12 2.5 2.5 2.5h15c1.38 0 2.5-1.12 2.5-2.5 0-4.137-3.367-7.5-7.5-7.5zM70 66.667c2.761 0 5-2.239 5-5 0-2.762-2.239-5-5-5s-5 2.238-5 5c0 2.761 2.239 5 5 5zM72.5 70h-5c-4.133 0-7.5 3.363-7.5 7.5 0 1.38 1.12 2.5 2.5 2.5h15c1.38 0 2.5-1.12 2.5-2.5 0-4.137-3.367-7.5-7.5-7.5z"/>
    <path fill="#FFC107" d="M54.533 10.79L46.06 9.527 42.223 1.43C41.81.557 40.93 0 39.963 0h-.01c-.966.003-1.85.567-2.256 1.447l-3.78 8.12-8.47 1.323c-.927.143-1.694.793-1.987 1.683-.297.894-.063 1.87.59 2.54l6.223 6.327-1.436 9c-.154.943.253 1.893 1.036 2.44.427.303.927.453 1.434.453.416 0 .836-.103 1.216-.316l7.53-4.194 7.564 4.14c.833.46 1.863.407 2.65-.153.776-.553 1.176-1.503 1.02-2.45l-1.5-8.987 6.18-6.37c.653-.673.876-1.653.573-2.54-.307-.89-1.077-1.533-2.007-1.673z"/>
    <path fill="#546D79" d="M39.95 42.603H12.13c-1.177 0-2.13.95-2.13 2.127v7.77c1.38 0 2.5-1.12 2.5-2.5v-5h27.45v-2.397z"/>
    <path fill="#546D79" d="M40 33.333c-1.38 0-2.5 1.12-2.5 2.5v15c0 1.38 1.12 2.5 2.5 2.5v-20z"/>
    <path fill="#F40" d="M10 66.667c2.757 0 5-2.244 5-5 0-2.757-2.243-5-5-5s-5 2.243-5 5c0 2.756 2.243 5 5 5zM12.5 70h-5C3.367 70 0 73.367 0 77.5 0 78.88 1.12 80 2.5 80h15c1.38 0 2.5-1.12 2.5-2.5 0-4.133-3.367-7.5-7.5-7.5z"/>
    <path fill="#DEA806" d="M39.963 0h-.01c-.966.003-1.85.567-2.256 1.447l-3.78 8.12-8.47 1.323c-.927.147-1.694.797-1.987 1.683-.297.89-.067 1.87.59 2.537l6.223 6.327-1.436 9c-.154.946.253 1.893 1.036 2.443.427.303.927.453 1.434.453.416 0 .836-.103 1.216-.316l7.53-4.194V0h-.09z"/>
</svg>
