<svg xmlns="http://www.w3.org/2000/svg" width="107" height="106" fill="none" viewBox="0 0 107 106">
    <path fill="#F40" d="M46.858 27.608l-.212.211L36.49 17.663l.142-.142c7.405-4.443 17.492-5.078 26.52-2.115 1.516.549 3 1.185 4.443 1.904-8.393-.07-14.882 4.444-20.736 10.298z"/>
    <path fill="#F40" d="M25.063 45.311l-6.489-6.489-3.526-3.526 19.537-19.538 1.904 1.905L46.718 27.89l1.41 1.41-4.232 4.232-11.073 11.074-4.232 4.232-3.527-3.527z"/>
    <path fill="#30394B" d="M67.594 57.231L81.42 71.055c3.038 3.039 3.038 7.965 0 11.003-1.448 1.525-3.47 2.37-5.572 2.328-2.063.017-4.046-.796-5.502-2.257L56.521 68.305 67.594 57.23z"/>
    <path fill="#30394B" d="M44.46 34.097L67.594 57.23 56.521 68.305 33.385 45.17l-.564-.564 11.073-11.074.565.565zM18.574 38.822l-6.56 6.56 6.546 6.545 6.56-6.56-6.546-6.545z"/>
    <path fill="#F40" d="M18.504 51.87l3.526 3.527-7.547 7.547L.941 49.402l7.547-7.547 3.527 3.527 6.489 6.489z"/>
</svg>
