<svg xmlns="http://www.w3.org/2000/svg" width="57" height="80" fill="none" viewBox="0 0 57 80">
    <path fill="#F40" fill-rule="evenodd" d="M56.744 0H0v57.054h56.744V0z" clip-rule="evenodd"/>
    <path fill="#30394B" fill-rule="evenodd" d="M3.592 76.004h2.92v3.81h-.974l-.146-.887C5.022 79.36 4.487 80 3.212 80 1.528 80 0 78.78 0 76.299c0-1.93 1.06-3.75 3.416-3.74 2.142 0 2.988 1.407 3.066 2.381h-1.46c0-.275-.496-1.162-1.528-1.162-1.041 0-2.005.73-2.005 2.54 0 1.93 1.041 2.432 2.034 2.432.322 0 1.392-.128 1.694-1.555H3.592v-1.191zM13.333 72.868h3.559c1.872 0 2.215 1.34 2.215 1.929 0 .75-.392 1.396-1.088 1.624.578.248.892.456.892 1.73 0 .997 0 1.244.314 1.358v.18h-1.628c-.097-.322-.157-.674-.157-1.377 0-.931-.058-1.292-1.146-1.292h-1.52v2.67h-1.44v-6.822zm3.167 3.003c.764 0 1.137-.257 1.137-.931 0-.362-.167-.894-1.03-.894h-1.832v1.825H16.5zM28.682 72.558c.897 0 3.256.404 3.256 3.72 0 3.318-2.36 3.722-3.256 3.722-.896 0-3.256-.404-3.256-3.721s2.36-3.72 3.256-3.72zm0 6.192c.765 0 1.84-.492 1.84-2.471s-1.075-2.47-1.84-2.47c-.764 0-1.84.491-1.84 2.47s1.076 2.47 1.84 2.47zM44.341 77.387c0 1.83-1.099 2.613-2.844 2.613-.636 0-1.58-.155-2.198-.842-.376-.426-.52-.987-.54-1.683v-4.607h1.475v4.51c0 .967.56 1.393 1.234 1.393.993 0 1.398-.484 1.398-1.326v-4.577h1.475v4.52zM52.598 79.69h-1.435v-6.822H54.3c1.33 0 2.133.846 2.133 2.186 0 .617-.344 2.175-2.19 2.175h-1.646v2.46zm1.33-3.64c1.071 0 1.071-.759 1.071-1.063 0-.665-.373-.94-1.263-.94h-1.138v2.004h1.33zM0 59.535h3.467c1.749 0 2.196 1.093 2.196 1.828 0 1.022-.576 1.31-.874 1.46.874.328 1.102 1.023 1.102 1.728 0 .566-.238 1.102-.615 1.47-.408.397-.795.646-2.255.646H0v-7.132zm1.43 2.79h1.75c.585 0 1.052-.228 1.052-.794 0-.585-.417-.765-1.092-.765H1.43v1.56zm0 3.11H3.26c.725 0 1.142-.318 1.142-1.043 0-.626-.536-.864-1.073-.864H1.431v1.907zM12.539 60.796H8.637v1.5h3.584v1.262H8.637v1.847h4.076v1.262H7.132v-7.132h5.407v1.261zM13.954 59.535h3.228c2.464 0 2.973 2.046 2.973 3.397 0 1.53-.621 3.735-3.034 3.735h-3.167v-7.132zm1.497 5.9h1.486c1.242 0 1.66-1.222 1.66-2.394 0-2.106-1.029-2.275-1.68-2.275H15.45v4.669zM28.217 66.667h-1.434v-5.96h-.02l-1.374 5.96h-1.506l-1.343-5.96h-.02v5.96h-1.435v-7.132h2.244l1.333 5.622h.02l1.312-5.622h2.223v7.132zM35.349 64.25c0 1.909-1.16 2.727-3.002 2.727-.671 0-1.669-.162-2.32-.879-.397-.444-.549-1.03-.57-1.757v-4.806h1.557v4.705c0 1.01.59 1.455 1.302 1.455 1.049 0 1.476-.505 1.476-1.384v-4.776h1.557v4.716zM39.981 66.667h-1.513v-5.87H36.28v-1.262h5.891v1.261h-2.189v5.87zM44.624 63.468v3.199h-1.523v-7.132h1.523v2.701h2.845v-2.701h1.523v7.132H47.47v-3.199h-2.845zM51.193 66.667h-1.58l2.56-7.132h1.73l2.531 7.132h-1.63l-.46-1.47h-2.651l-.5 1.47zm.9-2.702h1.83l-.89-2.821h-.02l-.92 2.82zM56.744 69.767H0v-.62h56.744v.62z" clip-rule="evenodd"/>
    <path fill="#fff" fill-rule="evenodd" d="M14.931 12.274V26.59c0 1.584-1.468 2.868-3.28 2.868-1.81 0-3.279-1.284-3.279-2.868V12.275c0-1.584 1.468-2.868 3.28-2.868 1.811 0 3.28 1.284 3.28 2.867zm4.353-5.71c-1.81 0-3.28 1.284-3.28 2.868v17.157c0 1.584 1.47 2.868 3.28 2.868 1.812 0 3.28-1.284 3.28-2.868V9.432c0-1.584-1.468-2.868-3.28-2.868zm7.633-2.843c-1.811 0-3.28 1.284-3.28 2.868v20c0 1.584 1.469 2.868 3.28 2.868 1.811 0 3.28-1.284 3.28-2.868v-20c0-1.584-1.469-2.868-3.28-2.868zm7.633 1.421c-1.812 0-3.28 1.284-3.28 2.868v18.58c0 1.583 1.468 2.867 3.28 2.867 1.81 0 3.28-1.284 3.28-2.868V8.01c0-1.584-1.47-2.868-3.28-2.868z" clip-rule="evenodd"/>
    <path fill="#fff" fill-rule="evenodd" d="M26.079 42.145c-.274-.146-.604-.26-.988-.341-.238-.065-.485-.122-.741-.17-.257-.05-.522-.09-.797-.123.22 0 .462-.008.728-.024.265-.016.533-.061.81-.098.375-.05.805-.202.933-.267.183-.081.348-.175.494-.28.146-.106.275-.232.385-.378.11-.146.196-.309.26-.487.064-.179.096-.382.096-.61v-8.822c-.115.008-.23.021-.347.021-1.642 0-3.074-.824-3.815-2.039-.741 1.215-2.174 2.04-3.816 2.04-1.641 0-3.074-.826-3.815-2.04-.74 1.214-2.173 2.04-3.815 2.04-1.308 0-2.48-.527-3.279-1.354v24.12h14.825c.237 0 .489-.012.754-.037.266-.024.526-.068.783-.133.22-.049.425-.11.617-.183.193-.073.38-.158.563-.256.201-.113.385-.247.55-.402.164-.154.31-.32.439-.5.127-.194.224-.413.288-.657.064-.243.096-.511.096-.804V43.68c0-.21-.041-.41-.123-.596-.083-.187-.356-.59-1.085-.938zm-5.628 7.437c0 .097-.018.199-.055.304-.037.106-.091.208-.164.305-.074.081-.151.15-.234.207-.082.057-.178.085-.288.085h-4.447v-7.461h4.365c.091 0 .182.02.274.06.092.041.183.094.275.159.073.049.137.114.192.195.055.081.082.162.082.243v5.903zm0-10.166c0 .082-.027.167-.082.256-.055.09-.12.175-.192.256-.074.065-.16.122-.261.17-.1.05-.197.074-.288.074h-4.365v-6.853h4.365c.091 0 .182.02.274.06.092.041.183.095.275.16.073.048.137.113.192.194.055.081.082.163.082.244v5.44zM43.217 8.992v.014c-2.35.144-4.205 1.846-4.205 3.93v13.677c-.004 2.092-1.946 3.793-4.334 3.797h-.018c-1.634-.004-3.058-.802-3.795-1.976-.444.742-1.272 1.397-2.337 1.729v3.368c.007.15 0 .235 0 .235V40.31s.075-2.29 1.4-3.804c1.415-1.514 3.303-1.6 3.425-1.605h14.709V8.992h-4.845z" clip-rule="evenodd"/>
    <path fill="#fff" fill-rule="evenodd" d="M48.062 43.002H37.904v2.789h3.619v3.832c0 .097-.032.202-.095.315-.064.113-.15.21-.259.29-.09.082-.2.15-.326.207-.127.057-.255.085-.381.085h-2.83c-.127 0-.255-.032-.381-.097-.127-.064-.245-.137-.354-.218-.109-.097-.195-.202-.258-.316-.064-.112-.096-.226-.096-.34v-9.918c0-.113.037-.218.109-.315.072-.097.172-.186.3-.267.108-.08.23-.146.367-.194.136-.049.267-.073.394-.073h10.349V35.97h-14.54c-.271 0-.54.028-.802.085-.263.057-.513.142-.748.255-.236.13-.459.275-.667.436-.209.162-.395.356-.558.582-.145.178-.281.384-.408.619-.127.234-.227.48-.3.74-.09.258-.158.533-.203.824-.046.29-.069.59-.069.897v8.658c0 .259.023.525.069.8.045.275.104.55.177.825.072.21.158.416.258.618s.222.4.367.595c.164.21.358.408.585.593.227.186.486.344.776.473.254.114.53.203.83.267.3.065.63.097.993.097h14.24V43.002z" clip-rule="evenodd"/>
</svg>
