<svg xmlns="http://www.w3.org/2000/svg" width="80" height="80" fill="none" viewBox="0 0 80 80">
    <path fill="#30394B" d="M70.667 48h8v29.333h-8V48z"/>
    <path fill="#FFDAAA" d="M70.667 52v21.333l-16 5.334h-20l-20.894-7.374c-.52-.185-.97-.526-1.287-.978-.318-.451-.488-.99-.486-1.542V67.56c0-.414.096-.822.281-1.193.186-.37.454-.692.786-.94.33-.249.715-.417 1.123-.49.407-.075.826-.053 1.223.063l19.254 5.667h10.666l12-6.667h-16c-.706-.002-1.383-.284-1.883-.783-.5-.5-.781-1.177-.783-1.884v-.666c-.002-.578.184-1.14.53-1.602.347-.462.835-.798 1.39-.958L61.333 52h9.334z"/>
    <path fill="#FFC477" d="M70.667 52v21.333l-16 5.334h-20l-20.894-7.374c-.52-.185-.97-.526-1.287-.978-.318-.451-.488-.99-.486-1.542V67.56c.002-.112.011-.223.027-.333l17.306 6.106h20l16-5.333V52h5.334z"/>
    <path fill="#FFDAAA" d="M68 11.227v1.213c0 .414-.096.822-.281 1.193-.186.37-.454.692-.786.94-.33.249-.715.416-1.123.49-.407.075-.826.053-1.223-.063L45.333 9.333H34.667l-12 6.667h16c.706.002 1.383.284 1.883.783.5.5.781 1.177.783 1.884v.666c.002.578-.184 1.14-.53 1.602-.347.462-.835.798-1.39.958L18.667 28H9.333V6.667l16-5.334h20l20.894 7.374c.52.184.97.526 1.287.978.318.45.487.99.486 1.542z"/>
    <path fill="#FFC477" d="M68 11.227v1.213c-.002.112-.011.223-.027.333L50.667 6.667h-20l-16 5.333v16H9.333V6.667l16-5.334h20l20.894 7.374c.52.184.97.526 1.287.978.318.45.487.99.486 1.542z"/>
    <path fill="#F40" d="M53.333 36v1.333c0 9.334-13.333 16-13.333 16s-13.333-6.666-13.333-16V36c0-1.768.702-3.464 1.952-4.714 1.25-1.25 2.946-1.953 4.714-1.953 3.68 0 6.667 2.987 6.667 8 0-5.013 2.987-8 6.667-8 1.768 0 3.463.703 4.714 1.953 1.25 1.25 1.952 2.946 1.952 4.714z"/>
    <path fill="#30394B" d="M9.333 28v4h-8V2.667h8V28z"/>
    <path fill="#30394B" d="M66.667 7.453L45.773.08c-.14-.053-.29-.08-.44-.08h-20c-.144.003-.288.025-.426.067l-14.24 4.746V2.667c0-.354-.14-.693-.39-.943s-.59-.39-.944-.39h-8c-.353 0-.692.14-.942.39S0 2.314 0 2.667V32c0 .354.14.693.39.943s.59.39.943.39h8c.354 0 .693-.14.943-.39s.39-.59.39-.943v-2.667h8c.127.003.253-.015.374-.053l20.76-6.107c.827-.247 1.552-.754 2.068-1.446.516-.691.796-1.53.799-2.394v-.666c-.004-1.06-.426-2.076-1.175-2.825-.75-.75-1.765-1.172-2.825-1.175H27.813l7.2-4h10.134L64.2 16.28c.598.173 1.229.206 1.842.095.613-.111 1.192-.363 1.691-.735.498-.371.902-.854 1.18-1.41.278-.556.422-1.169.42-1.79v-1.213c0-.828-.255-1.635-.733-2.311-.478-.676-1.153-1.187-1.933-1.463zM8 30.667H2.667V4H8v26.667zM66.667 12.44c0 .207-.049.411-.141.596-.093.185-.227.347-.393.47-.165.125-.358.209-.561.246-.204.037-.413.026-.612-.032L45.707 8.053c-.121-.038-.247-.056-.374-.053H34.667c-.23-.003-.456.057-.654.173l-12 6.667c-.256.145-.456.37-.57.641-.115.271-.137.572-.062.857.075.284.241.536.474.716.232.18.518.278.812.28h16c.353 0 .692.14.942.39s.391.589.391.943v.666c-.002.288-.096.568-.269.799-.173.23-.415.399-.691.481l-20.56 6.054h-7.813V7.627l14.88-4.96h19.56L65.773 9.96c.263.092.49.263.65.49.16.227.245.499.244.777v1.213zM78.667 46.667h-8c-.354 0-.693.14-.943.39s-.39.59-.39.943v2.667h-8c-.127-.003-.253.015-.374.053L40.2 56.827c-.827.247-1.552.754-2.068 1.446-.516.691-.796 1.53-.799 2.394v.666c.004 1.06.426 2.076 1.175 2.825.75.75 1.765 1.172 2.825 1.175h10.854l-7.2 4H34.853L15.8 63.72c-.598-.173-1.229-.206-1.842-.095-.613.111-1.192.363-1.691.735-.498.371-.902.854-1.18 1.41-.278.556-.422 1.169-.42 1.79v1.213c0 .828.255 1.635.733 2.311.478.676 1.153 1.187 1.933 1.463l20.894 7.373c.14.053.29.08.44.08h20c.144-.002.288-.025.426-.067l14.24-4.746v2.146c0 .354.14.693.39.943s.59.39.944.39h8c.353 0 .692-.14.942-.39s.391-.589.391-.943V48c0-.353-.14-.693-.39-.943s-.59-.39-.943-.39zm-9.334 25.706l-14.88 4.96h-19.56L14.227 70.04c-.263-.092-.49-.263-.65-.49-.16-.227-.245-.499-.244-.777V67.56c0-.207.049-.411.141-.596.093-.185.227-.346.393-.47.165-.125.357-.209.561-.246.204-.037.413-.026.612.032l19.253 5.667c.121.038.247.056.374.053h10.666c.23.003.456-.057.654-.173l12-6.667c.255-.145.456-.37.57-.641.115-.271.137-.572.062-.857-.075-.284-.241-.536-.474-.716-.232-.18-.518-.278-.812-.28h-16c-.353 0-.692-.14-.942-.39S40 61.687 40 61.333v-.666c.002-.288.096-.568.269-.799.173-.23.415-.399.691-.481l20.56-6.054h7.813v19.04zm8 3.627H72V49.333h5.333V76z"/>
</svg>
