<svg xmlns="http://www.w3.org/2000/svg" width="24" height="24" fill="none" viewBox="0 0 24 24">
    <path fill="#50ABF1" d="M23.956 0H.043v23.913h23.913V0z"/>
    <path fill="#fff" d="M3.212 17.726c1.591 1.01 3.479 1.594 5.503 1.594 5.685 0 10.294-4.61 10.294-10.294 0-.142-.003-.283-.009-.424.206-.161 1.478-1.18 1.79-1.836 0 0-1.034.43-2.044.53h-.007l.006-.003c.093-.062 1.395-.948 1.571-2.004 0 0-.73.39-1.753.73-.17.057-.347.112-.53.163-.659-.703-1.596-1.142-2.636-1.142-1.995 0-3.612 1.616-3.612 3.61 0 .281.032.555.093.818-.278-.012-4.525-.25-7.413-3.748 0 0-1.727 2.357 1.028 4.78 0 0-.837-.033-1.56-.464 0 0-.265 2.855 2.855 3.585 0 0-.614.232-1.593.067 0 0 .547 2.307 3.32 2.522 0 0-2.193 1.98-5.304 1.516z"/>
</svg>
