<svg xmlns="http://www.w3.org/2000/svg" width="73" height="80" fill="none" viewBox="0 0 73 80">
    <path fill="#30394B" d="M36.293 80c21.828-8.165 36.293-29.022 36.293-52.326V13.549c-7.483 0-13.55-6.066-13.55-13.549H13.55C13.55 7.483 7.483 13.55 0 13.55v14.124C0 50.978 14.466 71.834 36.293 80z"/>
    <path fill="#F40" d="M36.293 80c21.827-8.165 36.293-29.022 36.293-52.326V13.549c-7.483 0-13.55-6.066-13.55-13.549H36.294v80z"/>
    <path fill="#F1F1F2" d="M31.237 54.106l-12.031-12.03 6.629-6.63 5.402 5.402 15.515-15.514 6.629 6.629-22.144 22.143z"/>
    <path fill="#E6E6E6" d="M36.293 49.05V35.793l10.459-10.458 6.629 6.629L36.293 49.05z"/>
</svg>
