<svg xmlns="http://www.w3.org/2000/svg" width="24" height="24" fill="none" viewBox="0 0 24 24">
    <path fill="#0084B1" d="M24 0H.087v23.913H24V0z"/>
    <path fill="#fff" d="M5.715 3.632c1.095 0 1.998.905 1.996 2.006-.003 1.153-.96 2.021-2.01 1.996C4.636 7.656 3.7 6.766 3.7 5.63c0-1.1.907-1.999 2.016-1.998zM6.878 20.279H4.532c-.305 0-.552-.247-.552-.552V9.717c0-.305.247-.552.552-.552h2.346c.305 0 .552.247.552.552v10.01c0 .305-.247.552-.552.552zM20.387 12.682c0-2.1-1.701-3.8-3.8-3.8h-.601c-1.149 0-2.163.572-2.773 1.448-.067.096-.128.195-.185.297l-.031-.004V9.394c0-.126-.103-.229-.23-.229H9.84c-.126 0-.229.103-.229.23V20.05c0 .127.103.229.229.23h2.991c.127 0 .23-.103.23-.23v-6.155c0-1.064.848-1.948 1.912-1.96.543-.006 1.036.211 1.39.567.351.35.567.834.567 1.368v6.182c0 .126.103.229.23.229h2.998c.127 0 .23-.102.23-.229v-7.37z"/>
</svg>
