<svg xmlns="http://www.w3.org/2000/svg" width="46" height="80" fill="none" viewBox="0 0 46 80">
    <path fill="#F40" d="M36.868 0h-7.031v31.753l8.689-8.689c.439-.44.686-1.036.686-1.658V2.344C39.212 1.05 38.163 0 36.868 0zM6.4 2.344v19.062c0 .622.246 1.217.687 1.658l8.687 8.688V0h-7.03C7.448 0 6.398 1.05 6.398 2.344z"/>
    <path fill="#FB3" d="M22.806 42.5c-3.877 0-7.03-3.154-7.03-7.031V30.78c0-1.294 1.049-2.343 2.343-2.343h9.375c1.294 0 2.344 1.049 2.344 2.343v4.688c0 3.877-3.155 7.031-7.032 7.031zm-2.343-9.375v2.344c0 1.292 1.051 2.343 2.343 2.343 1.293 0 2.344-1.05 2.344-2.343v-2.344h-4.687z"/>
    <path fill="#E68A2E" d="M29.838 35.469V30.78c0-1.294-1.05-2.343-2.344-2.343h-4.688v4.687h2.344v2.344c0 1.292-1.051 2.343-2.344 2.343V42.5c3.877 0 7.032-3.154 7.032-7.031z"/>
    <path fill="#30394B" d="M29.837 0v31.753l-.686.686c-.44.44-1.036.686-1.658.686h-9.375c-.62 0-1.217-.247-1.656-.686l-.688-.687V0h14.063z"/>
    <path fill="#30394B" d="M22.806 33.125h4.687c.622 0 1.219-.247 1.658-.686l.686-.686V0h-7.03v33.125z"/>
    <path fill="#E68A2E" d="M44.93 55.25l-9.374 9.14-12.75-4.406 7.828-10.594 12.984 1.876c.89.14 1.594.75 1.875 1.593.282.844.047 1.781-.563 2.39z"/>
    <path fill="#FB3" d="M37.759 77.281c.14.844-.188 1.734-.938 2.25-.375.328-.89.469-1.36.469-.374 0-.75-.094-1.077-.281l-11.578-6.047V59.984l12.75 4.407 2.203 12.89z"/>
    <path fill="#FFE14D" d="M22.806 59.984v13.687L11.228 79.72c-.75.421-1.735.375-2.438-.188-.75-.516-1.078-1.406-.937-2.25l2.203-12.89 12.75-4.407z"/>
    <path fill="#FB3" d="M22.806 59.984l-12.75 4.406L.68 55.25c-.61-.61-.844-1.547-.563-2.39.281-.845.985-1.454 1.875-1.594l12.985-1.876 7.828 10.594z"/>
    <path fill="#FFE14D" d="M30.634 49.39l-7.828 10.594-7.828-10.593 5.765-10.36c.844-1.5 3.281-1.5 4.125 0l5.766 10.36z"/>
    <path fill="#FB3" d="M24.868 39.031c-.422-.75-1.242-1.125-2.062-1.125v22.078l7.828-10.593-5.766-10.36z"/>
</svg>
